<svg width="49" height="49" viewBox="0 0 49 49" fill="none" xmlns="http://www.w3.org/2000/svg">
<path d="M24.5 0C38.031 0 49 10.969 49 24.5C49 38.031 38.031 49 24.5 49C10.969 49 0 38.031 0 24.5C5.15406e-07 10.969 10.969 5.1544e-07 24.5 0ZM24.499 11.4336C20.9523 11.4336 20.5068 11.4493 19.1133 11.5127C17.7225 11.5764 16.7731 11.7961 15.9424 12.1191C15.083 12.4529 14.3532 12.8994 13.627 13.626C12.9002 14.3522 12.454 15.0814 12.1191 15.9404C11.7952 16.7715 11.5743 17.7218 11.5117 19.1123C11.4494 20.5058 11.4336 20.9517 11.4336 24.5C11.4336 28.0487 11.4495 28.4929 11.5127 29.8867C11.5767 31.2775 11.7964 32.2269 12.1191 33.0576C12.4531 33.917 12.8995 34.6468 13.626 35.373C14.352 36.0999 15.0816 36.5471 15.9404 36.8809C16.7718 37.204 17.7216 37.4246 19.1123 37.4883C20.5061 37.5517 20.9516 37.5674 24.5 37.5674C28.0486 37.5674 28.493 37.5517 29.8867 37.4883C31.2776 37.4246 32.2283 37.204 33.0596 36.8809C33.9185 36.5472 34.6462 36.0996 35.3721 35.373C36.0989 34.6468 36.546 33.9177 36.8809 33.0586C37.2021 32.2275 37.422 31.2772 37.4873 29.8867C37.5499 28.4931 37.5664 28.0486 37.5664 24.5C37.5664 20.9514 37.5499 20.5061 37.4873 19.1123C37.422 17.7212 37.2021 16.7713 36.8809 15.9404C36.546 15.0811 36.0988 14.3522 35.3721 13.626C34.6453 12.8993 33.9187 12.4526 33.0586 12.1191C32.2257 11.7961 31.2756 11.5764 29.8848 11.5127C28.4912 11.4493 28.0471 11.4336 24.499 11.4336Z" fill="black" fill-opacity="0.55"/>
<path d="M23.3292 13.7881C23.677 13.7875 24.0651 13.7881 24.5011 13.7881C27.9899 13.7881 28.4036 13.8007 29.7813 13.8633C31.0551 13.9215 31.7465 14.1346 32.2071 14.3135C32.8169 14.5503 33.252 14.8337 33.7091 15.291C34.1663 15.7483 34.4493 16.1842 34.6866 16.7939C34.8654 17.254 35.0788 17.9452 35.1368 19.2188C35.1994 20.5962 35.213 21.0102 35.213 24.4971C35.213 27.9843 35.1994 28.3989 35.1368 29.7764C35.0785 31.0499 34.8654 31.7412 34.6866 32.2012C34.4498 32.8109 34.1663 33.2452 33.7091 33.7021C33.2517 34.1595 32.8172 34.4429 32.2071 34.6797C31.7471 34.8593 31.0552 35.0716 29.7813 35.1299C28.4039 35.1925 27.9899 35.2061 24.5011 35.2061C21.0121 35.2061 20.5982 35.1925 19.2208 35.1299C17.9472 35.0711 17.2558 34.8585 16.795 34.6797C16.1852 34.4429 15.7494 34.1595 15.2921 33.7021C14.8348 33.2448 14.5519 32.8102 14.3145 32.2002C14.1357 31.7401 13.9223 31.0484 13.8643 29.7744C13.8018 28.3973 13.7892 27.9832 13.7892 24.4941C13.7892 21.0049 13.8017 20.5932 13.8643 19.2158C13.9226 17.942 14.1357 17.2506 14.3145 16.79C14.5514 16.1803 14.8348 15.7444 15.2921 15.2871C15.7494 14.8298 16.1852 14.547 16.795 14.3096C17.2556 14.1299 17.947 13.9169 19.2208 13.8584C20.4262 13.804 20.8939 13.7879 23.3292 13.7852V13.7881ZM24.1563 17.7988C20.6109 17.9783 17.7914 20.9101 17.7911 24.5C17.7911 28.2058 20.7953 31.2089 24.5011 31.209C28.2069 31.209 31.2101 28.2058 31.2101 24.5C31.2098 20.7945 28.2066 17.7901 24.5011 17.79L24.1563 17.7988ZM31.4757 15.958C30.6103 15.9583 29.9084 16.6597 29.9083 17.5254C29.9083 18.3909 30.6102 19.0935 31.4757 19.0938C32.3414 19.0938 33.044 18.3911 33.044 17.5254C33.044 16.6598 32.3413 15.957 31.4757 15.957V15.958Z" fill="black" fill-opacity="0.55"/>
<path d="M24.5012 20.1445C26.9066 20.1445 28.8568 22.0945 28.8568 24.5001C28.8568 26.9055 26.9066 28.8557 24.5012 28.8557C22.0956 28.8557 20.1456 26.9055 20.1456 24.5001C20.1456 22.0945 22.0956 20.1445 24.5012 20.1445Z" fill="black" fill-opacity="0.55"/>
</svg>
