<svg width="49" height="49" viewBox="0 0 49 49" fill="none" xmlns="http://www.w3.org/2000/svg">
<circle cx="24.5" cy="24.5" r="24.5" fill="black" fill-opacity="0.55"/>
<path d="M24.5 12C19.2533 12 15 16.2533 15 21.5C15 23.7839 15.8008 25.8703 17.4167 28.125L24.1875 37.8438C24.2797 37.9785 24.4062 38 24.5 38C24.5938 38 24.7203 37.9785 24.8125 37.8438L31.5833 28.125C33.1458 25.9844 34 23.5839 34 21.5C34 16.2533 29.7467 12 24.5 12ZM24.5 26C22.0147 26 20 23.9853 20 21.5C20 19.0147 22.0147 17 24.5 17C26.9853 17 29 19.0147 29 21.5C29 23.9853 26.9853 26 24.5 26Z" fill="white"/>
</svg>
