<svg width="49" height="49" viewBox="0 0 49 49" fill="none" xmlns="http://www.w3.org/2000/svg">
<path d="M24.5 0C38.031 0 49 10.969 49 24.5C49 38.031 38.031 49 24.5 49C10.969 49 0 38.031 0 24.5C0 10.969 10.969 0 24.5 0ZM36.6973 16.0342C36.5185 14.5317 34.6966 14.8623 33.6826 15.2002C28.4712 17.1832 23.3118 19.3129 18.1729 21.4805C15.1857 22.8039 11.9881 24.1207 9.12402 25.6982C7.72859 26.7199 10.1003 27.3954 11.7188 28.0654C13.5238 28.6201 15.6287 29.4697 17.4346 28.4756C20.9697 26.4449 24.2407 23.9933 27.5938 21.6826C28.204 21.2921 30.0547 20.0175 29.4287 21.5293C27.1073 24.0679 24.5099 26.1193 22.0605 28.5332C21.2016 29.231 20.3098 30.6341 21.2715 31.6113C24.2072 33.6666 27.204 35.6555 30.1777 37.6641C31.4152 38.652 33.349 37.8534 33.6211 36.3096C34.4107 31.6749 35.2203 27.0406 35.9209 22.3906C36.1969 20.2761 36.5994 18.1612 36.6973 16.0342Z" fill="black" fill-opacity="0.55"/>
</svg>
