<svg width="49" height="49" viewBox="0 0 49 49" fill="none" xmlns="http://www.w3.org/2000/svg">
<path d="M24.5 0C38.031 0 49 10.969 49 24.5C49 38.031 38.031 49 24.5 49C10.969 49 0 38.031 0 24.5C5.15406e-07 10.969 10.969 5.1544e-07 24.5 0ZM25.3076 8.9834C17.2777 8.9834 10.7425 15.5183 10.7393 23.5508C10.7382 26.1184 11.4087 28.6246 12.6836 30.834L10.6162 38.3838L18.3398 36.3574C20.4677 37.518 22.8636 38.13 25.3018 38.1309H25.3076C33.3399 38.1275 39.8727 31.5931 39.876 23.5625C39.8775 19.6699 38.3637 16.0095 35.6133 13.2559C32.8628 10.5022 29.2048 8.98513 25.3076 8.9834Z" fill="black" fill-opacity="0.55"/>
<path fill-rule="evenodd" clip-rule="evenodd" d="M25.044 11.5693C28.2781 11.5705 31.3184 12.8315 33.6046 15.1201C35.8906 17.4088 37.1497 20.4512 37.1485 23.6865C37.1458 30.3632 31.7131 35.7959 25.0391 35.7959H25.0342C22.8615 35.795 20.7302 35.2106 18.8712 34.1074L18.4297 33.8457L13.8467 35.0479L15.0694 30.5791L14.7823 30.1211C13.5702 28.1932 12.9298 25.9648 12.9307 23.6768C12.9335 17.0008 18.3651 11.5695 25.044 11.5693ZM20.1495 16.8232C19.9068 16.8233 19.5123 16.914 19.1788 17.2783C18.8451 17.6428 17.9053 18.5239 17.9053 20.3154C17.9055 22.1071 19.2097 23.8382 19.3917 24.0811C19.5758 24.3275 21.9598 28.0011 25.6094 29.5771C26.4777 29.9521 27.156 30.176 27.6846 30.3438C28.5566 30.6209 29.3505 30.582 29.9776 30.4883C30.6769 30.3838 32.1309 29.6079 32.4346 28.7578C32.7377 27.9076 32.7384 27.1785 32.6475 27.0264C32.5566 26.8745 32.3133 26.7838 31.9493 26.6016C31.5853 26.4194 29.7957 25.5386 29.462 25.417C29.1284 25.2956 28.8852 25.2345 28.6426 25.5986C28.4 25.963 27.7027 26.7834 27.4903 27.0264C27.278 27.2692 27.066 27.2994 26.7022 27.1172C26.3382 26.935 25.1649 26.5508 23.7745 25.3105C22.6924 24.3453 21.9614 23.1535 21.7491 22.7891C21.5369 22.4247 21.727 22.2274 21.9092 22.0459C22.073 21.8827 22.2732 21.6206 22.4551 21.4082C22.637 21.1958 22.6981 21.0435 22.8194 20.8008C22.9404 20.5579 22.8801 20.3452 22.7891 20.1631C22.6979 19.9802 21.9694 18.1898 21.6661 17.4609C21.3707 16.7515 21.0711 16.847 20.8477 16.8359C20.6356 16.8253 20.3921 16.8232 20.1495 16.8232Z" fill="black" fill-opacity="0.55"/>
</svg>
